<svg xmlns="http://www.w3.org/2000/svg" viewBox="0 0 256 256" fill="none">
  <defs>
    <linearGradient id="shell" x1="32" y1="32" x2="224" y2="224" gradientUnits="userSpaceOnUse">
      <stop stop-color="#6AF3C7"/>
      <stop offset="0.55" stop-color="#54A9FF"/>
      <stop offset="1" stop-color="#AE6DFF"/>
    </linearGradient>
    <radialGradient id="glow" cx="0" cy="0" r="1" gradientTransform="translate(128 96) rotate(90) scale(120)">
      <stop stop-color="#7CF5D2" stop-opacity="0.7"/>
      <stop offset="1" stop-color="#050914" stop-opacity="0"/>
    </radialGradient>
  </defs>
  <rect width="256" height="256" rx="52" fill="#050914"/>
  <circle cx="128" cy="96" r="104" fill="url(#glow)"/>
  <path d="M128 58 183 82 199 136 163 190 93 202 53 164 57 100Z" fill="url(#shell)" opacity="0.95"/>
  <path d="M127 78 163 94 173 129 148 165 106 173 81 147 84 107Z" fill="#081323" opacity="0.88"/>
  <path d="M128 78v95M84 107l79 58M163 94l-57 79M94 139h69" stroke="#BDFCE8" stroke-linecap="round" stroke-opacity="0.7" stroke-width="8"/>
  <circle cx="192" cy="112" r="15" fill="#081323"/>
  <circle cx="195" cy="109" r="5" fill="#DDFEFA"/>
  <path d="M49 134c-12 0-22 10-22 22s10 22 22 22 22-10 22-22-10-22-22-22Zm19-62c-11 0-20 9-20 20s9 20 20 20 20-9 20-20-9-20-20-20Zm121 96c-11 0-20 9-20 20s9 20 20 20 20-9 20-20-9-20-20-20Zm-7-101c-11 0-20 9-20 20s9 20 20 20 20-9 20-20-9-20-20-20Z" fill="#112640"/>
</svg>
